<?xml version="1.0" encoding="utf-8"?>
<!-- Generator: Adobe Illustrator 24.3.0, SVG Export Plug-In . SVG Version: 6.00 Build 0)  -->
<svg version="1.1" id="Layer_1" xmlns="http://www.w3.org/2000/svg" xmlns:xlink="http://www.w3.org/1999/xlink" x="0px" y="0px"
	 viewBox="0 0 180 180" style="enable-background:new 0 0 180 180;" xml:space="preserve">
<style type="text/css">
	.st0{fill:#F2F2F2;}
	.st1{fill:#FF916E;}
	.st2{fill:#FFFFFF;}
	.st3{fill:#A3A3A3;}
	.st4{fill:#333333;}
	.st5{fill-rule:evenodd;clip-rule:evenodd;fill:#333333;}
	.st6{fill-rule:evenodd;clip-rule:evenodd;fill:#414D57;}
	.st7{fill-rule:evenodd;clip-rule:evenodd;fill:#E7E4E5;}
	.st8{fill-rule:evenodd;clip-rule:evenodd;fill:#FFDB76;}
	.st9{fill-rule:evenodd;clip-rule:evenodd;fill:#A3A3A3;}
	.st10{opacity:0.7;}
	.st11{opacity:0.5;}
	.st12{fill:#FFDB76;}
	.st13{fill:#ADEBF6;}
</style>
<g>
	<g id="XMLID_30_">
		<g>
			
				<ellipse transform="matrix(0.9993 -3.848071e-02 3.848071e-02 0.9993 -3.3966 3.5299)" class="st0" cx="90" cy="90" rx="64.6" ry="64.6"/>
		</g>
	</g>
	<g>
		<g>
			<g>
				<g>
					
						<rect x="29.8" y="72" transform="matrix(0.9711 -0.2387 0.2387 0.9711 -16.3978 12.2474)" class="st1" width="25.1" height="3.7"/>
				</g>
			</g>
			<g>
				<g>
					
						<rect x="33.3" y="75.1" transform="matrix(0.9711 -0.2387 0.2387 0.9711 -19.673 13.4861)" class="st2" width="25.1" height="25.8"/>
				</g>
			</g>
			<g>
				<g>
					
						<rect x="33.1" y="77.3" transform="matrix(0.9711 -0.2387 0.2387 0.9711 -17.3359 12.6014)" class="st3" width="20.4" height="1.2"/>
				</g>
			</g>
			<g>
				<g>
					
						<rect x="33.8" y="79.9" transform="matrix(0.9711 -0.2387 0.2387 0.9711 -17.936 12.8285)" class="st3" width="20.4" height="1.2"/>
				</g>
			</g>
			<g>
				<g>
					
						<rect x="34.5" y="83" transform="matrix(0.9711 -0.2387 0.2387 0.9711 -18.7457 12.5129)" class="st3" width="15.6" height="1.2"/>
				</g>
			</g>
			<g>
				<g>
					
						<rect x="35" y="85" transform="matrix(0.9711 -0.2387 0.2387 0.9711 -19.1354 13.2819)" class="st3" width="20.4" height="1.2"/>
				</g>
			</g>
			<g>
				<g>
					
						<rect x="35.7" y="87.6" transform="matrix(0.9711 -0.2387 0.2387 0.9711 -19.7356 13.5092)" class="st3" width="20.4" height="1.2"/>
				</g>
			</g>
			<g>
				<g>
					
						<rect x="37.6" y="95.4" transform="matrix(0.9711 -0.2387 0.2387 0.9711 -21.5352 14.1899)" class="st3" width="20.4" height="1.2"/>
				</g>
			</g>
			<g>
				<g>
					
						<rect x="36.4" y="90.8" transform="matrix(0.9711 -0.2388 0.2388 0.9711 -20.55 13.1973)" class="st3" width="15.6" height="1.2"/>
				</g>
			</g>
			<g>
				<g>
					
						<rect x="37.1" y="94" transform="matrix(0.9711 -0.2387 0.2387 0.9711 -21.3728 12.8155)" class="st3" width="10.2" height="1.2"/>
				</g>
			</g>
			<g>
				<g>
					<g>
						<g>
							<path class="st1" d="M32.9,75.4c0.1,0.4-0.1,0.8-0.6,0.9c-0.4,0.1-0.8-0.1-0.9-0.6c-0.1-0.4,0.1-0.8,0.6-0.9
								C32.4,74.7,32.8,75,32.9,75.4z"/>
						</g>
					</g>
				</g>
				<g>
					<g>
						<path class="st4" d="M32.3,75.9l-0.1,0c-0.2,0-0.3-0.1-0.4-0.2l-0.6-2.2c0-0.2,0.1-0.3,0.2-0.4l0.1,0c0.2,0,0.3,0.1,0.4,0.2
							l0.6,2.2C32.6,75.7,32.5,75.9,32.3,75.9z"/>
					</g>
				</g>
			</g>
			<g>
				<g>
					<g>
						<g>
							<path class="st1" d="M36.2,74.6c0.1,0.4-0.1,0.8-0.6,0.9c-0.4,0.1-0.8-0.1-0.9-0.6c-0.1-0.4,0.1-0.8,0.6-0.9
								C35.7,73.9,36.1,74.1,36.2,74.6z"/>
						</g>
					</g>
				</g>
				<g>
					<g>
						<path class="st4" d="M35.6,75.1l-0.1,0c-0.2,0-0.3-0.1-0.4-0.2l-0.6-2.2c0-0.2,0.1-0.3,0.2-0.4l0.1,0c0.2,0,0.3,0.1,0.4,0.2
							l0.6,2.2C35.9,74.9,35.8,75,35.6,75.1z"/>
					</g>
				</g>
			</g>
			<g>
				<g>
					<g>
						<g>
							<path class="st1" d="M39.5,73.7c0.1,0.4-0.1,0.8-0.6,0.9c-0.4,0.1-0.8-0.1-0.9-0.6c-0.1-0.4,0.1-0.8,0.6-0.9
								C39,73.1,39.4,73.3,39.5,73.7z"/>
						</g>
					</g>
				</g>
				<g>
					<g>
						<path class="st4" d="M39,74.3l-0.1,0c-0.2,0-0.3-0.1-0.4-0.2l-0.6-2.2c0-0.2,0.1-0.3,0.2-0.4l0.1,0c0.2,0,0.3,0.1,0.4,0.2
							l0.6,2.2C39.2,74.1,39.1,74.2,39,74.3z"/>
					</g>
				</g>
			</g>
			<g>
				<g>
					<g>
						<g>
							<path class="st1" d="M42.9,72.9c0.1,0.4-0.1,0.8-0.6,0.9c-0.4,0.1-0.8-0.1-0.9-0.6c-0.1-0.4,0.1-0.8,0.6-0.9
								C42.4,72.3,42.8,72.5,42.9,72.9z"/>
						</g>
					</g>
				</g>
				<g>
					<g>
						<path class="st4" d="M42.3,73.4l-0.1,0c-0.2,0-0.3-0.1-0.4-0.2L41.2,71c0-0.2,0.1-0.3,0.2-0.4l0.1,0c0.2,0,0.3,0.1,0.4,0.2
							l0.6,2.2C42.6,73.2,42.5,73.4,42.3,73.4z"/>
					</g>
				</g>
			</g>
			<g>
				<g>
					<g>
						<g>
							<path class="st1" d="M46.2,72.1c0.1,0.4-0.1,0.8-0.6,0.9c-0.4,0.1-0.8-0.1-0.9-0.6c-0.1-0.4,0.1-0.8,0.6-0.9
								C45.7,71.4,46.1,71.7,46.2,72.1z"/>
						</g>
					</g>
				</g>
				<g>
					<g>
						<path class="st4" d="M45.6,72.6l-0.1,0c-0.2,0-0.3-0.1-0.4-0.2l-0.6-2.2c0-0.2,0.1-0.3,0.2-0.4l0.1,0c0.2,0,0.3,0.1,0.4,0.2
							l0.6,2.2C45.9,72.4,45.8,72.6,45.6,72.6z"/>
					</g>
				</g>
			</g>
			<g>
				<g>
					<g>
						<g>
							<path class="st1" d="M49.5,71.3c0.1,0.4-0.1,0.8-0.6,0.9c-0.4,0.1-0.8-0.1-0.9-0.6c-0.1-0.4,0.1-0.8,0.6-0.9
								C49,70.6,49.4,70.9,49.5,71.3z"/>
						</g>
					</g>
				</g>
				<g>
					<g>
						<path class="st4" d="M48.9,71.8l-0.1,0c-0.2,0-0.3-0.1-0.4-0.2l-0.6-2.2c0-0.2,0.1-0.3,0.2-0.4l0.1,0c0.2,0,0.3,0.1,0.4,0.2
							l0.6,2.2C49.2,71.6,49.1,71.8,48.9,71.8z"/>
					</g>
				</g>
			</g>
			<g>
				<g>
					<g>
						<g>
							<path class="st1" d="M52.8,70.5c0.1,0.4-0.1,0.8-0.6,0.9c-0.4,0.1-0.8-0.1-0.9-0.6c-0.1-0.4,0.1-0.8,0.6-0.9
								C52.3,69.8,52.7,70.1,52.8,70.5z"/>
						</g>
					</g>
				</g>
				<g>
					<g>
						<path class="st4" d="M52.3,71l-0.1,0c-0.2,0-0.3-0.1-0.4-0.2l-0.6-2.2c0-0.2,0.1-0.3,0.2-0.4l0.1,0c0.2,0,0.3,0.1,0.4,0.2
							l0.6,2.2C52.5,70.8,52.4,71,52.3,71z"/>
					</g>
				</g>
			</g>
		</g>
		<g>
			<g>
				<g>
					<g>
						<g>
							<path class="st5" d="M127.5,41.9h-75c-1.9,0-2.6,0.7-2.3,2.3l2.9,17.7h73.7l2.9-17.7C130.1,42.6,129.4,41.9,127.5,41.9z"/>
						</g>
					</g>
				</g>
				<g>
					<g>
						<g>
							<path class="st6" d="M127.5,40.9H53c-1.9,0-3.2,0.8-2.9,2.3l0.1,0.4c-0.1-1.2,0.7-1.8,2.3-1.8h75c1.7,0,2.4,0.6,2.3,1.8l0,0
								C130.2,42.1,129.4,40.9,127.5,40.9z"/>
						</g>
					</g>
				</g>
				<g>
					<g>
						<g>
							<g>
								<g>
									<polygon class="st7" points="52.5,43.7 127.6,43.7 125.2,60 54.8,60.1 									"/>
								</g>
							</g>
						</g>
						<g>
							<g>
								<g>
									<polygon class="st7" points="126.5,44.3 124.7,59.1 125.2,60 127.6,43.7 									"/>
								</g>
							</g>
						</g>
						<g>
							<g>
								<g>
									<polygon class="st7" points="53.5,44.3 55.4,59.2 54.8,60.1 52.5,43.7 									"/>
								</g>
							</g>
						</g>
					</g>
					<g>
						<g>
							<g>
								<polygon class="st8" points="126.5,44.2 124.7,59.1 55.4,59.2 53.5,44.3 								"/>
							</g>
						</g>
					</g>
				</g>
			</g>
			<g>
				<g>
					<g>
						<path class="st5" d="M54.5,62.5l71.1,0c0.9,0,1.7,0.7,1.7,1.7l-0.1,46c0,0.9-0.7,1.7-1.7,1.7l-70.9,0.1
							c-0.9,0-1.7-0.7-1.7-1.7l-0.1-46C52.8,63.3,53.6,62.5,54.5,62.5L54.5,62.5z"/>
					</g>
				</g>
			</g>
			<g>
				<g>
					<g>
						<path class="st7" d="M64,63.2l52.2,0c0.4,0,0.5,0.4,0.5,0.9v2c0,0.5-0.3,1-0.7,1H64c-0.4,0-0.7-0.4-0.7-0.8l0-2.1
							C63.3,63.5,63.6,63.2,64,63.2L64,63.2z"/>
					</g>
				</g>
			</g>
			<g>
				<g>
					<g>
						<g>
							<g>
								<path class="st7" d="M118.2,62.4l4.1,0l0,2.3c0,0.2-0.2,0.4-0.4,0.4l-3.3,0c-0.2,0-0.4-0.2-0.4-0.4L118.2,62.4z"/>
							</g>
						</g>
					</g>
					<g>
						<g>
							<g>
								<path class="st7" d="M122.4,64.5v0.3c0,0.2-0.2,0.4-0.4,0.4l-3.3,0c-0.2,0-0.4-0.2-0.4-0.4v-0.3c0,0.2,0.2,0.4,0.4,0.4h3.3
									C122.2,64.9,122.3,64.7,122.4,64.5z"/>
							</g>
						</g>
					</g>
					<g>
						<g>
							<g>
								<path class="st6" d="M118.8,60.9l2.9,0c0.2,0,0.3,0.2,0.3,0.3l0,2.8c0,0.2-0.2,0.3-0.3,0.3l-2.9,0c-0.2,0-0.3-0.2-0.3-0.3
									l0-2.8C118.5,61.1,118.6,60.9,118.8,60.9L118.8,60.9z"/>
							</g>
						</g>
					</g>
				</g>
				<g>
					<g>
						<g>
							<g>
								<path class="st7" d="M57.7,62.5l4.1,0l0,2.3c0,0.2-0.2,0.4-0.4,0.4l-3.3,0c-0.2,0-0.4-0.2-0.4-0.4L57.7,62.5z"/>
							</g>
						</g>
					</g>
					<g>
						<g>
							<g>
								<path class="st7" d="M61.8,64.6v0.3c0,0.2-0.2,0.4-0.4,0.4l-3.3,0c-0.2,0-0.4-0.2-0.4-0.4v-0.3c0,0.2,0.2,0.4,0.4,0.4h3.3
									C61.6,64.9,61.8,64.8,61.8,64.6z"/>
							</g>
						</g>
					</g>
					<g>
						<g>
							<g>
								<path class="st6" d="M58.2,61l2.9,0c0.2,0,0.3,0.2,0.3,0.3l0,2.8c0,0.2-0.2,0.3-0.3,0.3l-2.9,0c-0.2,0-0.3-0.2-0.3-0.3
									l0-2.8C57.9,61.1,58,61,58.2,61L58.2,61z"/>
							</g>
						</g>
					</g>
				</g>
			</g>
			<g>
				<g>
					<g>
						<g>
							<path class="st7" d="M56.5,67.9l67.8,0c0.5,0,0.6,0.4,0.6,0.8v23.6c0,0.5-0.4,1-0.9,1H56.5c-0.5,0-0.9-0.4-0.9-0.9l0-23.7
								C55.6,68.3,56,67.9,56.5,67.9L56.5,67.9z"/>
						</g>
					</g>
				</g>
				<g>
					<g>
						<g>
							<g>
								<path class="st9" d="M119.8,69l2.3,0c0.3,0,0.5,0.2,0.5,0.5l0,1.7c0,0.3-0.2,0.5-0.5,0.5l-2.3,0c-0.3,0-0.5-0.2-0.5-0.5
									l0-1.7C119.4,69.3,119.6,69,119.8,69L119.8,69z"/>
							</g>
						</g>
					</g>
					<g>
						<g>
							<g>
								<path class="st9" d="M120,72.3l2.1,0c0.3,0,0.6,0.3,0.6,0.6l0,2.3c0,0.3-0.3,0.6-0.6,0.6l-2.1,0c-0.3,0-0.6-0.3-0.6-0.6
									l0-2.3C119.4,72.6,119.6,72.3,120,72.3L120,72.3z"/>
							</g>
						</g>
					</g>
					<g>
						<g>
							<g>
								<path class="st9" d="M120,76.4l2.1,0c0.3,0,0.6,0.3,0.6,0.6l0,2.3c0,0.3-0.3,0.6-0.6,0.6l-2.1,0c-0.3,0-0.6-0.3-0.6-0.6
									l0-2.3C119.4,76.6,119.6,76.4,120,76.4L120,76.4z"/>
							</g>
						</g>
					</g>
					<g>
						<g>
							<g>
								<path class="st9" d="M120,80.4l2.1,0c0.3,0,0.6,0.3,0.6,0.6l0,2.3c0,0.3-0.3,0.6-0.6,0.6l-2.1,0c-0.3,0-0.6-0.3-0.6-0.6
									l0-2.3C119.4,80.7,119.6,80.4,120,80.4L120,80.4z"/>
							</g>
						</g>
					</g>
					<g>
						<g>
							<g>
								<path class="st9" d="M120,84.5l2.1,0c0.3,0,0.6,0.3,0.6,0.6l0,2.3c0,0.3-0.3,0.6-0.6,0.6l-2.1,0c-0.3,0-0.6-0.3-0.6-0.6
									l0-2.3C119.4,84.7,119.7,84.5,120,84.5L120,84.5z"/>
							</g>
						</g>
					</g>
					<g>
						<g>
							<g>
								<path class="st9" d="M120,88.5l2.1,0c0.3,0,0.6,0.3,0.6,0.6l0,2.3c0,0.3-0.3,0.6-0.6,0.6l-2.1,0c-0.3,0-0.6-0.3-0.6-0.6
									l0-2.3C119.4,88.8,119.7,88.5,120,88.5L120,88.5z"/>
							</g>
						</g>
					</g>
					<g>
						<g>
							<g>
								<path class="st9" d="M115.8,69l2.3,0c0.3,0,0.5,0.2,0.5,0.5l0,1.7c0,0.3-0.2,0.5-0.5,0.5l-2.3,0c-0.3,0-0.5-0.2-0.5-0.5
									l0-1.7C115.3,69.3,115.5,69,115.8,69L115.8,69z"/>
							</g>
						</g>
					</g>
					<g>
						<g>
							<g>
								<path class="st9" d="M112.2,72.3l5.7,0c0.3,0,0.6,0.3,0.6,0.6l0,2.2c0,0.3-0.3,0.6-0.6,0.6l-5.7,0c-0.3,0-0.6-0.3-0.6-0.6
									l0-2.2C111.6,72.6,111.9,72.3,112.2,72.3L112.2,72.3z"/>
							</g>
						</g>
					</g>
					<g>
						<g>
							<g>
								<path class="st9" d="M114.9,76.4l3.1,0c0.3,0,0.6,0.3,0.6,0.6l0,2.2c0,0.3-0.3,0.6-0.6,0.6l-3.1,0c-0.3,0-0.6-0.3-0.6-0.6
									l0-2.2C114.2,76.6,114.5,76.4,114.9,76.4L114.9,76.4z"/>
							</g>
						</g>
					</g>
					<g>
						<g>
							<g>
								<path class="st9" d="M111.8,80.4l6.2,0c0.3,0,0.6,0.3,0.6,0.6l0,2.2c0,0.3-0.3,0.6-0.6,0.6l-6.2,0c-0.3,0-0.6-0.3-0.6-0.6
									l0-2.2C111.1,80.7,111.4,80.4,111.8,80.4L111.8,80.4z"/>
							</g>
						</g>
					</g>
					<g>
						<g>
							<g>
								<path class="st9" d="M115.9,84.5l2.1,0c0.3,0,0.6,0.3,0.6,0.6l0,2.3c0,0.3-0.3,0.6-0.6,0.6l-2.1,0c-0.3,0-0.6-0.3-0.6-0.6
									l0-2.3C115.3,84.7,115.6,84.5,115.9,84.5L115.9,84.5z"/>
							</g>
						</g>
					</g>
					<g>
						<g>
							<g>
								<path class="st9" d="M115.9,88.5l2.1,0c0.3,0,0.6,0.3,0.6,0.6l0,2.3c0,0.3-0.3,0.6-0.6,0.6l-2.1,0c-0.3,0-0.6-0.3-0.6-0.6
									l0-2.3C115.3,88.8,115.6,88.5,115.9,88.5L115.9,88.5z"/>
							</g>
						</g>
					</g>
					<g>
						<g>
							<g>
								<path class="st9" d="M112.1,69.1l2,0c0.3,0,0.5,0.2,0.5,0.5l0,1.7c0,0.3-0.2,0.5-0.5,0.5l-2,0c-0.3,0-0.5-0.2-0.5-0.5l0-1.7
									C111.6,69.3,111.8,69.1,112.1,69.1L112.1,69.1z"/>
							</g>
						</g>
					</g>
					<g>
						<g>
							<g>
								<path class="st9" d="M108.3,69.1l2,0c0.3,0,0.5,0.2,0.5,0.5l0,1.7c0,0.3-0.2,0.5-0.5,0.5l-2,0c-0.3,0-0.5-0.2-0.5-0.5l0-1.7
									C107.8,69.3,108,69.1,108.3,69.1L108.3,69.1z"/>
							</g>
						</g>
					</g>
					<g>
						<g>
							<g>
								<path class="st9" d="M104.5,69.1l2,0c0.3,0,0.5,0.2,0.5,0.5l0,1.7c0,0.3-0.2,0.5-0.5,0.5l-2,0c-0.3,0-0.5-0.2-0.5-0.5l0-1.7
									C104,69.3,104.2,69.1,104.5,69.1L104.5,69.1z"/>
							</g>
						</g>
					</g>
					<g>
						<g>
							<g>
								<path class="st9" d="M100.7,69.1l2,0c0.3,0,0.5,0.2,0.5,0.5l0,1.7c0,0.3-0.2,0.5-0.5,0.5l-2,0c-0.3,0-0.5-0.2-0.5-0.5l0-1.7
									C100.2,69.3,100.4,69.1,100.7,69.1L100.7,69.1z"/>
							</g>
						</g>
					</g>
					<g>
						<g>
							<g>
								<path class="st9" d="M96.9,69.1l2,0c0.3,0,0.5,0.2,0.5,0.5l0,1.7c0,0.3-0.2,0.5-0.5,0.5l-2,0c-0.3,0-0.5-0.2-0.5-0.5l0-1.7
									C96.4,69.3,96.6,69.1,96.9,69.1L96.9,69.1z"/>
							</g>
						</g>
					</g>
					<g>
						<g>
							<g>
								<path class="st9" d="M93.1,69.1l2,0c0.3,0,0.5,0.2,0.5,0.5l0,1.7c0,0.3-0.2,0.5-0.5,0.5l-2,0c-0.3,0-0.5-0.2-0.5-0.5l0-1.7
									C92.6,69.3,92.8,69.1,93.1,69.1L93.1,69.1z"/>
							</g>
						</g>
					</g>
					<g>
						<g>
							<g>
								<path class="st9" d="M89.3,69.1l2,0c0.3,0,0.5,0.2,0.5,0.5l0,1.7c0,0.3-0.2,0.5-0.5,0.5l-2,0c-0.3,0-0.5-0.2-0.5-0.5l0-1.7
									C88.8,69.3,89,69.1,89.3,69.1L89.3,69.1z"/>
							</g>
						</g>
					</g>
					<g>
						<g>
							<g>
								<path class="st9" d="M85.5,69.1l2,0c0.3,0,0.5,0.2,0.5,0.5l0,1.7c0,0.3-0.2,0.5-0.5,0.5l-2,0c-0.3,0-0.5-0.2-0.5-0.5l0-1.7
									C85,69.3,85.2,69.1,85.5,69.1L85.5,69.1z"/>
							</g>
						</g>
					</g>
					<g>
						<g>
							<g>
								<path class="st9" d="M81.7,69.1l2,0c0.3,0,0.5,0.2,0.5,0.5l0,1.7c0,0.3-0.2,0.5-0.5,0.5l-2,0c-0.3,0-0.5-0.2-0.5-0.5l0-1.7
									C81.2,69.3,81.4,69.1,81.7,69.1L81.7,69.1z"/>
							</g>
						</g>
					</g>
					<g>
						<g>
							<g>
								<path class="st9" d="M77.9,69.1l2,0c0.3,0,0.5,0.2,0.5,0.5l0,1.7c0,0.3-0.2,0.5-0.5,0.5l-2,0c-0.3,0-0.5-0.2-0.5-0.5l0-1.7
									C77.4,69.3,77.6,69.1,77.9,69.1L77.9,69.1z"/>
							</g>
						</g>
					</g>
					<g>
						<g>
							<g>
								<path class="st9" d="M74.1,69.1l2,0c0.3,0,0.5,0.2,0.5,0.5l0,1.7c0,0.3-0.2,0.5-0.5,0.5l-2,0c-0.3,0-0.5-0.2-0.5-0.5l0-1.7
									C73.6,69.3,73.8,69.1,74.1,69.1L74.1,69.1z"/>
							</g>
						</g>
					</g>
					<g>
						<g>
							<g>
								<path class="st9" d="M70.3,69.1l2,0c0.3,0,0.5,0.2,0.5,0.5l0,1.7c0,0.3-0.2,0.5-0.5,0.5l-2,0c-0.3,0-0.5-0.2-0.5-0.5l0-1.7
									C69.8,69.3,70,69.1,70.3,69.1L70.3,69.1z"/>
							</g>
						</g>
					</g>
					<g>
						<g>
							<g>
								<path class="st9" d="M66.5,69.1l2,0c0.3,0,0.5,0.2,0.5,0.5l0,1.7c0,0.3-0.2,0.5-0.5,0.5l-2,0c-0.3,0-0.5-0.2-0.5-0.5l0-1.7
									C66,69.3,66.2,69.1,66.5,69.1L66.5,69.1z"/>
							</g>
						</g>
					</g>
					<g>
						<g>
							<g>
								<path class="st9" d="M62.7,69.1l2,0c0.3,0,0.5,0.2,0.5,0.5l0,1.7c0,0.3-0.2,0.5-0.5,0.5l-2,0c-0.3,0-0.5-0.2-0.5-0.5l0-1.7
									C62.2,69.3,62.4,69.1,62.7,69.1L62.7,69.1z"/>
							</g>
						</g>
					</g>
					<g>
						<g>
							<g>
								<path class="st9" d="M58.4,69.1l2.3,0c0.3,0,0.5,0.2,0.5,0.5l0,1.7c0,0.3-0.2,0.5-0.5,0.5l-2.3,0c-0.3,0-0.5-0.2-0.5-0.5
									l0-1.7C57.9,69.3,58.1,69.1,58.4,69.1L58.4,69.1z"/>
							</g>
						</g>
					</g>
					<g>
						<g>
							<g>
								<path class="st9" d="M108.1,72.3l2,0c0.3,0,0.6,0.3,0.6,0.6l0,2.3c0,0.3-0.3,0.6-0.6,0.6l-2,0c-0.3,0-0.6-0.3-0.6-0.6l0-2.3
									C107.5,72.6,107.8,72.3,108.1,72.3L108.1,72.3z"/>
							</g>
						</g>
					</g>
					<g>
						<g>
							<g>
								<path class="st9" d="M104,72.3l2,0c0.3,0,0.6,0.3,0.6,0.6l0,2.3c0,0.3-0.3,0.6-0.6,0.6l-2,0c-0.3,0-0.6-0.3-0.6-0.6l0-2.3
									C103.4,72.6,103.7,72.3,104,72.3L104,72.3z"/>
							</g>
						</g>
					</g>
					<g>
						<g>
							<g>
								<path class="st9" d="M99.9,72.3l2,0c0.3,0,0.6,0.3,0.6,0.6l0,2.3c0,0.3-0.3,0.6-0.6,0.6l-2,0c-0.3,0-0.6-0.3-0.6-0.6l0-2.3
									C99.3,72.6,99.6,72.3,99.9,72.3L99.9,72.3z"/>
							</g>
						</g>
					</g>
					<g>
						<g>
							<g>
								<path class="st9" d="M95.7,72.3l2,0c0.3,0,0.6,0.3,0.6,0.6l0,2.3c0,0.3-0.3,0.6-0.6,0.6l-2,0c-0.3,0-0.6-0.3-0.6-0.6l0-2.3
									C95.2,72.6,95.4,72.3,95.7,72.3L95.7,72.3z"/>
							</g>
						</g>
					</g>
					<g>
						<g>
							<g>
								<path class="st9" d="M91.6,72.3l2,0c0.3,0,0.6,0.3,0.6,0.6l0,2.3c0,0.3-0.3,0.6-0.6,0.6l-2,0c-0.3,0-0.6-0.3-0.6-0.6l0-2.3
									C91.1,72.6,91.3,72.3,91.6,72.3L91.6,72.3z"/>
							</g>
						</g>
					</g>
					<g>
						<g>
							<g>
								<path class="st9" d="M87.5,72.3l2,0c0.3,0,0.6,0.3,0.6,0.6l0,2.3c0,0.3-0.3,0.6-0.6,0.6l-2,0c-0.3,0-0.6-0.3-0.6-0.6l0-2.3
									C86.9,72.6,87.2,72.3,87.5,72.3L87.5,72.3z"/>
							</g>
						</g>
					</g>
					<g>
						<g>
							<g>
								<path class="st9" d="M83.4,72.3l2,0c0.3,0,0.6,0.3,0.6,0.6l0,2.3c0,0.3-0.3,0.6-0.6,0.6l-2,0c-0.3,0-0.6-0.3-0.6-0.6l0-2.3
									C82.8,72.6,83.1,72.3,83.4,72.3L83.4,72.3z"/>
							</g>
						</g>
					</g>
					<g>
						<g>
							<g>
								<path class="st9" d="M79.3,72.3l2,0c0.3,0,0.6,0.3,0.6,0.6l0,2.3c0,0.3-0.3,0.6-0.6,0.6l-2,0c-0.3,0-0.6-0.3-0.6-0.6l0-2.3
									C78.7,72.6,78.9,72.3,79.3,72.3L79.3,72.3z"/>
							</g>
						</g>
					</g>
					<g>
						<g>
							<g>
								<path class="st9" d="M75.1,72.3l2,0c0.3,0,0.6,0.3,0.6,0.6l0,2.3c0,0.3-0.3,0.6-0.6,0.6l-2,0c-0.3,0-0.6-0.3-0.6-0.6l0-2.3
									C74.6,72.6,74.8,72.3,75.1,72.3L75.1,72.3z"/>
							</g>
						</g>
					</g>
					<g>
						<g>
							<g>
								<path class="st9" d="M71,72.3l2,0c0.3,0,0.6,0.3,0.6,0.6l0,2.3c0,0.3-0.3,0.6-0.6,0.6l-2,0c-0.3,0-0.6-0.3-0.6-0.6l0-2.3
									C70.4,72.6,70.7,72.3,71,72.3L71,72.3z"/>
							</g>
						</g>
					</g>
					<g>
						<g>
							<g>
								<path class="st9" d="M66.9,72.4l2,0c0.3,0,0.6,0.3,0.6,0.6l0,2.3c0,0.3-0.3,0.6-0.6,0.6l-2,0c-0.3,0-0.6-0.3-0.6-0.6l0-2.3
									C66.3,72.6,66.6,72.4,66.9,72.4L66.9,72.4z"/>
							</g>
						</g>
					</g>
					<g>
						<g>
							<g>
								<path class="st9" d="M62.8,72.4l2,0c0.3,0,0.6,0.3,0.6,0.6l0,2.3c0,0.3-0.3,0.6-0.6,0.6l-2,0c-0.3,0-0.6-0.3-0.6-0.6l0-2.3
									C62.2,72.6,62.5,72.4,62.8,72.4L62.8,72.4z"/>
							</g>
						</g>
					</g>
					<g>
						<g>
							<g>
								<path class="st9" d="M58.5,72.4l2.1,0c0.3,0,0.6,0.3,0.6,0.6l0,2.3c0,0.3-0.3,0.6-0.6,0.6l-2.1,0c-0.3,0-0.6-0.3-0.6-0.6
									l0-2.3C57.9,72.6,58.2,72.4,58.5,72.4L58.5,72.4z"/>
							</g>
						</g>
					</g>
					<g>
						<g>
							<g>
								<path class="st9" d="M58.6,76.4l4.3,0c0.3,0,0.6,0.3,0.6,0.6l0,2.2c0,0.3-0.3,0.6-0.6,0.6l-4.3,0c-0.3,0-0.6-0.3-0.6-0.6
									l0-2.2C57.9,76.7,58.2,76.4,58.6,76.4L58.6,76.4z"/>
							</g>
						</g>
					</g>
					<g>
						<g>
							<g>
								<path class="st9" d="M58.6,80.5l5.1,0c0.3,0,0.6,0.3,0.6,0.6l0,2.2c0,0.3-0.3,0.6-0.6,0.6l-5.1,0c-0.3,0-0.6-0.3-0.6-0.6
									l0-2.2C57.9,80.8,58.2,80.5,58.6,80.5L58.6,80.5z"/>
							</g>
						</g>
					</g>
					<g>
						<g>
							<g>
								<path class="st9" d="M58.6,84.5l7.3,0c0.3,0,0.6,0.3,0.6,0.6l0,2.2c0,0.3-0.3,0.6-0.6,0.6l-7.3,0c-0.3,0-0.6-0.3-0.6-0.6
									l0-2.2C57.9,84.8,58.2,84.5,58.6,84.5L58.6,84.5z"/>
							</g>
						</g>
					</g>
					<g>
						<g>
							<g>
								<path class="st9" d="M58.6,88.6l3,0c0.3,0,0.6,0.3,0.6,0.6l0,2.2c0,0.3-0.3,0.6-0.6,0.6l-3,0c-0.3,0-0.6-0.3-0.6-0.6l0-2.2
									C58,88.9,58.2,88.6,58.6,88.6L58.6,88.6z"/>
							</g>
						</g>
					</g>
					<g>
						<g>
							<g>
								<path class="st9" d="M64.6,76.4l2.2,0c0.3,0,0.6,0.3,0.6,0.6l0,2.2c0,0.3-0.3,0.6-0.6,0.6l-2.2,0c-0.3,0-0.6-0.3-0.6-0.6
									l0-2.2C64,76.7,64.2,76.4,64.6,76.4L64.6,76.4z"/>
							</g>
						</g>
					</g>
					<g>
						<g>
							<g>
								<path class="st9" d="M68.8,76.4l2.2,0c0.3,0,0.6,0.3,0.6,0.6l0,2.2c0,0.3-0.3,0.6-0.6,0.6l-2.2,0c-0.3,0-0.6-0.3-0.6-0.6
									l0-2.2C68.2,76.7,68.4,76.4,68.8,76.4L68.8,76.4z"/>
							</g>
						</g>
					</g>
					<g>
						<g>
							<g>
								<path class="st9" d="M73,76.4l2.2,0c0.3,0,0.6,0.3,0.6,0.6l0,2.2c0,0.3-0.3,0.6-0.6,0.6l-2.2,0c-0.3,0-0.6-0.3-0.6-0.6
									l0-2.2C72.4,76.7,72.6,76.4,73,76.4L73,76.4z"/>
							</g>
						</g>
					</g>
					<g>
						<g>
							<g>
								<path class="st9" d="M77.2,76.4l2.2,0c0.3,0,0.6,0.3,0.6,0.6l0,2.2c0,0.3-0.3,0.6-0.6,0.6l-2.2,0c-0.3,0-0.6-0.3-0.6-0.6
									l0-2.2C76.6,76.7,76.8,76.4,77.2,76.4L77.2,76.4z"/>
							</g>
						</g>
					</g>
					<g>
						<g>
							<g>
								<path class="st9" d="M81.4,76.4l2.2,0c0.3,0,0.6,0.3,0.6,0.6l0,2.2c0,0.3-0.3,0.6-0.6,0.6l-2.2,0c-0.3,0-0.6-0.3-0.6-0.6
									l0-2.2C80.8,76.7,81,76.4,81.4,76.4L81.4,76.4z"/>
							</g>
						</g>
					</g>
					<g>
						<g>
							<g>
								<path class="st9" d="M85.6,76.4l2.2,0c0.3,0,0.6,0.3,0.6,0.6l0,2.2c0,0.3-0.3,0.6-0.6,0.6l-2.2,0c-0.3,0-0.6-0.3-0.6-0.6
									l0-2.2C85,76.7,85.2,76.4,85.6,76.4L85.6,76.4z"/>
							</g>
						</g>
					</g>
					<g>
						<g>
							<g>
								<path class="st9" d="M89.8,76.4l2.2,0c0.3,0,0.6,0.3,0.6,0.6l0,2.2c0,0.3-0.3,0.6-0.6,0.6l-2.2,0c-0.3,0-0.6-0.3-0.6-0.6
									l0-2.2C89.2,76.7,89.4,76.4,89.8,76.4L89.8,76.4z"/>
							</g>
						</g>
					</g>
					<g>
						<g>
							<g>
								<path class="st9" d="M94,76.4l2.2,0c0.3,0,0.6,0.3,0.6,0.6l0,2.2c0,0.3-0.3,0.6-0.6,0.6l-2.2,0c-0.3,0-0.6-0.3-0.6-0.6
									l0-2.2C93.4,76.7,93.6,76.4,94,76.4L94,76.4z"/>
							</g>
						</g>
					</g>
					<g>
						<g>
							<g>
								<path class="st9" d="M98.2,76.4l2.2,0c0.3,0,0.6,0.3,0.6,0.6l0,2.2c0,0.3-0.3,0.6-0.6,0.6l-2.2,0c-0.3,0-0.6-0.3-0.6-0.6
									l0-2.2C97.6,76.7,97.8,76.4,98.2,76.4L98.2,76.4z"/>
							</g>
						</g>
					</g>
					<g>
						<g>
							<g>
								<path class="st9" d="M102.4,76.4l2.2,0c0.3,0,0.6,0.3,0.6,0.6l0,2.2c0,0.3-0.3,0.6-0.6,0.6l-2.2,0c-0.3,0-0.6-0.3-0.6-0.6
									l0-2.2C101.8,76.6,102,76.4,102.4,76.4L102.4,76.4z"/>
							</g>
						</g>
					</g>
					<g>
						<g>
							<g>
								<path class="st9" d="M106.6,76.4l2.2,0c0.3,0,0.6,0.3,0.6,0.6l0,2.2c0,0.3-0.3,0.6-0.6,0.6l-2.2,0c-0.3,0-0.6-0.3-0.6-0.6
									l0-2.2C106,76.6,106.2,76.4,106.6,76.4L106.6,76.4z"/>
							</g>
						</g>
					</g>
					<g>
						<g>
							<g>
								<path class="st9" d="M110.8,76.4l2.2,0c0.3,0,0.6,0.3,0.6,0.6l0,2.2c0,0.3-0.3,0.6-0.6,0.6l-2.2,0c-0.3,0-0.6-0.3-0.6-0.6
									l0-2.2C110.2,76.6,110.4,76.4,110.8,76.4L110.8,76.4z"/>
							</g>
						</g>
					</g>
					<g>
						<g>
							<g>
								<path class="st9" d="M65.8,80.5l2.2,0c0.3,0,0.6,0.3,0.6,0.6l0,2.2c0,0.3-0.3,0.6-0.6,0.6l-2.2,0c-0.3,0-0.6-0.3-0.6-0.6
									l0-2.2C65.1,80.8,65.4,80.5,65.8,80.5L65.8,80.5z"/>
							</g>
						</g>
					</g>
					<g>
						<g>
							<g>
								<path class="st9" d="M70,80.5l2.2,0c0.3,0,0.6,0.3,0.6,0.6l0,2.2c0,0.3-0.3,0.6-0.6,0.6l-2.2,0c-0.3,0-0.6-0.3-0.6-0.6
									l0-2.2C69.3,80.7,69.6,80.5,70,80.5L70,80.5z"/>
							</g>
						</g>
					</g>
					<g>
						<g>
							<g>
								<path class="st9" d="M74.2,80.5l2.2,0c0.3,0,0.6,0.3,0.6,0.6l0,2.2c0,0.3-0.3,0.6-0.6,0.6l-2.2,0c-0.3,0-0.6-0.3-0.6-0.6
									l0-2.2C73.5,80.7,73.8,80.5,74.2,80.5L74.2,80.5z"/>
							</g>
						</g>
					</g>
					<g>
						<g>
							<g>
								<path class="st9" d="M78.3,80.5l2.2,0c0.3,0,0.6,0.3,0.6,0.6l0,2.2c0,0.3-0.3,0.6-0.6,0.6l-2.2,0c-0.3,0-0.6-0.3-0.6-0.6
									l0-2.2C77.7,80.7,78,80.5,78.3,80.5L78.3,80.5z"/>
							</g>
						</g>
					</g>
					<g>
						<g>
							<g>
								<path class="st9" d="M82.6,80.5l2.2,0c0.3,0,0.6,0.3,0.6,0.6l0,2.2c0,0.3-0.3,0.6-0.6,0.6l-2.2,0c-0.3,0-0.6-0.3-0.6-0.6
									l0-2.2C81.9,80.7,82.2,80.5,82.6,80.5L82.6,80.5z"/>
							</g>
						</g>
					</g>
					<g>
						<g>
							<g>
								<path class="st9" d="M86.7,80.5l2.2,0c0.3,0,0.6,0.3,0.6,0.6l0,2.2c0,0.3-0.3,0.6-0.6,0.6l-2.2,0c-0.3,0-0.6-0.3-0.6-0.6
									l0-2.2C86.1,80.7,86.4,80.5,86.7,80.5L86.7,80.5z"/>
							</g>
						</g>
					</g>
					<g>
						<g>
							<g>
								<path class="st9" d="M90.9,80.4l2.2,0c0.3,0,0.6,0.3,0.6,0.6l0,2.2c0,0.3-0.3,0.6-0.6,0.6l-2.2,0c-0.3,0-0.6-0.3-0.6-0.6
									l0-2.2C90.3,80.7,90.6,80.4,90.9,80.4L90.9,80.4z"/>
							</g>
						</g>
					</g>
					<g>
						<g>
							<g>
								<path class="st9" d="M95.1,80.4l2.2,0c0.3,0,0.6,0.3,0.6,0.6l0,2.2c0,0.3-0.3,0.6-0.6,0.6l-2.2,0c-0.3,0-0.6-0.3-0.6-0.6
									l0-2.2C94.5,80.7,94.8,80.4,95.1,80.4L95.1,80.4z"/>
							</g>
						</g>
					</g>
					<g>
						<g>
							<g>
								<path class="st9" d="M99.3,80.4l2.2,0c0.3,0,0.6,0.3,0.6,0.6l0,2.2c0,0.3-0.3,0.6-0.6,0.6l-2.2,0c-0.3,0-0.6-0.3-0.6-0.6
									l0-2.2C98.7,80.7,99,80.4,99.3,80.4L99.3,80.4z"/>
							</g>
						</g>
					</g>
					<g>
						<g>
							<g>
								<path class="st9" d="M103.5,80.4l2.2,0c0.3,0,0.6,0.3,0.6,0.6l0,2.2c0,0.3-0.3,0.6-0.6,0.6l-2.2,0c-0.3,0-0.6-0.3-0.6-0.6
									l0-2.2C102.9,80.7,103.2,80.4,103.5,80.4L103.5,80.4z"/>
							</g>
						</g>
					</g>
					<g>
						<g>
							<g>
								<path class="st9" d="M107.7,80.4l2.2,0c0.3,0,0.6,0.3,0.6,0.6l0,2.2c0,0.3-0.3,0.6-0.6,0.6l-2.2,0c-0.3,0-0.6-0.3-0.6-0.6
									l0-2.2C107.1,80.7,107.4,80.4,107.7,80.4L107.7,80.4z"/>
							</g>
						</g>
					</g>
					<g>
						<g>
							<g>
								<path class="st9" d="M68,84.5l2.2,0c0.3,0,0.6,0.3,0.6,0.6l0,2.2c0,0.3-0.3,0.6-0.6,0.6L68,88c-0.3,0-0.6-0.3-0.6-0.6l0-2.2
									C67.3,84.8,67.6,84.5,68,84.5L68,84.5z"/>
							</g>
						</g>
					</g>
					<g>
						<g>
							<g>
								<path class="st9" d="M72.2,84.5l2.2,0c0.3,0,0.6,0.3,0.6,0.6l0,2.2c0,0.3-0.3,0.6-0.6,0.6l-2.2,0c-0.3,0-0.6-0.3-0.6-0.6
									l0-2.2C71.5,84.8,71.8,84.5,72.2,84.5L72.2,84.5z"/>
							</g>
						</g>
					</g>
					<g>
						<g>
							<g>
								<path class="st9" d="M76.4,84.5l2.2,0c0.3,0,0.6,0.3,0.6,0.6l0,2.2c0,0.3-0.3,0.6-0.6,0.6l-2.2,0c-0.3,0-0.6-0.3-0.6-0.6
									l0-2.2C75.7,84.8,76,84.5,76.4,84.5L76.4,84.5z"/>
							</g>
						</g>
					</g>
					<g>
						<g>
							<g>
								<path class="st9" d="M80.6,84.5l2.2,0c0.3,0,0.6,0.3,0.6,0.6l0,2.2c0,0.3-0.3,0.6-0.6,0.6l-2.2,0c-0.3,0-0.6-0.3-0.6-0.6
									l0-2.2C79.9,84.8,80.2,84.5,80.6,84.5L80.6,84.5z"/>
							</g>
						</g>
					</g>
					<g>
						<g>
							<g>
								<path class="st9" d="M84.8,84.5l2.2,0c0.3,0,0.6,0.3,0.6,0.6l0,2.2c0,0.3-0.3,0.6-0.6,0.6l-2.2,0c-0.3,0-0.6-0.3-0.6-0.6
									l0-2.2C84.1,84.8,84.4,84.5,84.8,84.5L84.8,84.5z"/>
							</g>
						</g>
					</g>
					<g>
						<g>
							<g>
								<path class="st9" d="M89,84.5l2.2,0c0.3,0,0.6,0.3,0.6,0.6l0,2.2c0,0.3-0.3,0.6-0.6,0.6L89,88c-0.3,0-0.6-0.3-0.6-0.6l0-2.2
									C88.3,84.8,88.6,84.5,89,84.5L89,84.5z"/>
							</g>
						</g>
					</g>
					<g>
						<g>
							<g>
								<path class="st9" d="M93.2,84.5l2.2,0c0.3,0,0.6,0.3,0.6,0.6l0,2.2c0,0.3-0.3,0.6-0.6,0.6l-2.2,0c-0.3,0-0.6-0.3-0.6-0.6
									l0-2.2C92.5,84.8,92.8,84.5,93.2,84.5L93.2,84.5z"/>
							</g>
						</g>
					</g>
					<g>
						<g>
							<g>
								<path class="st9" d="M97.4,84.5l2.2,0c0.3,0,0.6,0.3,0.6,0.6l0,2.2c0,0.3-0.3,0.6-0.6,0.6l-2.2,0c-0.3,0-0.6-0.3-0.6-0.6
									l0-2.2C96.7,84.8,97,84.5,97.4,84.5L97.4,84.5z"/>
							</g>
						</g>
					</g>
					<g>
						<g>
							<g>
								<path class="st9" d="M101.6,84.5l2.2,0c0.3,0,0.6,0.3,0.6,0.6l0,2.2c0,0.3-0.3,0.6-0.6,0.6l-2.2,0c-0.3,0-0.6-0.3-0.6-0.6
									l0-2.2C100.9,84.8,101.2,84.5,101.6,84.5L101.6,84.5z"/>
							</g>
						</g>
					</g>
					<g>
						<g>
							<g>
								<path class="st9" d="M105.8,84.5l2.2,0c0.3,0,0.6,0.3,0.6,0.6l0,2.2c0,0.3-0.3,0.6-0.6,0.6l-2.2,0c-0.3,0-0.6-0.3-0.6-0.6
									l0-2.2C105.1,84.8,105.4,84.5,105.8,84.5L105.8,84.5z"/>
							</g>
						</g>
					</g>
					<g>
						<g>
							<g>
								<path class="st9" d="M110,84.5l4,0c0.3,0,0.6,0.3,0.6,0.6l0,2.2c0,0.3-0.3,0.6-0.6,0.6l-4,0c-0.3,0-0.6-0.3-0.6-0.6l0-2.2
									C109.3,84.8,109.6,84.5,110,84.5L110,84.5z"/>
							</g>
						</g>
					</g>
					<g>
						<g>
							<g>
								<path class="st9" d="M63.7,88.6l2.2,0c0.3,0,0.6,0.3,0.6,0.6l0,2.2c0,0.3-0.3,0.6-0.6,0.6l-2.2,0c-0.3,0-0.6-0.3-0.6-0.6
									l0-2.2C63.1,88.9,63.4,88.6,63.7,88.6L63.7,88.6z"/>
							</g>
						</g>
					</g>
					<g>
						<g>
							<g>
								<path class="st9" d="M67.9,88.6l2.2,0c0.3,0,0.6,0.3,0.6,0.6l0,2.2c0,0.3-0.3,0.6-0.6,0.6l-2.2,0c-0.3,0-0.6-0.3-0.6-0.6
									l0-2.2C67.3,88.9,67.6,88.6,67.9,88.6L67.9,88.6z"/>
							</g>
						</g>
					</g>
					<g>
						<g>
							<g>
								<path class="st9" d="M72.1,88.6l2.2,0c0.3,0,0.6,0.3,0.6,0.6l0,2.2c0,0.3-0.3,0.6-0.6,0.6l-2.2,0c-0.3,0-0.6-0.3-0.6-0.6
									l0-2.2C71.5,88.9,71.8,88.6,72.1,88.6L72.1,88.6z"/>
							</g>
						</g>
					</g>
					<g>
						<g>
							<g>
								<path class="st9" d="M76.3,88.6l2.2,0c0.3,0,0.6,0.3,0.6,0.6l0,2.2c0,0.3-0.3,0.6-0.6,0.6l-2.2,0c-0.3,0-0.6-0.3-0.6-0.6
									l0-2.2C75.7,88.9,76,88.6,76.3,88.6L76.3,88.6z"/>
							</g>
						</g>
					</g>
					<g>
						<g>
							<g>
								<path class="st9" d="M80.5,88.6l2.2,0c0.3,0,0.6,0.3,0.6,0.6l0,2.2c0,0.3-0.3,0.6-0.6,0.6l-2.2,0c-0.3,0-0.6-0.3-0.6-0.6
									l0-2.2C79.9,88.9,80.2,88.6,80.5,88.6L80.5,88.6z"/>
							</g>
						</g>
					</g>
					<g>
						<g>
							<g>
								<path class="st9" d="M84.7,88.6l2.2,0c0.3,0,0.6,0.3,0.6,0.6l0,2.2c0,0.3-0.3,0.6-0.6,0.6l-2.2,0c-0.3,0-0.6-0.3-0.6-0.6
									l0-2.2C84.1,88.9,84.4,88.6,84.7,88.6L84.7,88.6z"/>
							</g>
						</g>
					</g>
					<g>
						<g>
							<g>
								<path class="st9" d="M88.9,88.6l2.2,0c0.3,0,0.6,0.3,0.6,0.6l0,2.2c0,0.3-0.3,0.6-0.6,0.6l-2.2,0c-0.3,0-0.6-0.3-0.6-0.6
									l0-2.2C88.3,88.8,88.6,88.6,88.9,88.6L88.9,88.6z"/>
							</g>
						</g>
					</g>
					<g>
						<g>
							<g>
								<path class="st9" d="M93.1,88.6l2.2,0c0.3,0,0.6,0.3,0.6,0.6l0,2.2c0,0.3-0.3,0.6-0.6,0.6l-2.2,0c-0.3,0-0.6-0.3-0.6-0.6
									l0-2.2C92.5,88.8,92.8,88.6,93.1,88.6L93.1,88.6z"/>
							</g>
						</g>
					</g>
					<g>
						<g>
							<g>
								<path class="st9" d="M97.3,88.6l2.2,0c0.3,0,0.6,0.3,0.6,0.6l0,2.2c0,0.3-0.3,0.6-0.6,0.6l-2.2,0c-0.3,0-0.6-0.3-0.6-0.6
									l0-2.2C96.7,88.8,97,88.6,97.3,88.6L97.3,88.6z"/>
							</g>
						</g>
					</g>
					<g>
						<g>
							<g>
								<path class="st9" d="M101.5,88.6l2.2,0c0.3,0,0.6,0.3,0.6,0.6l0,2.2c0,0.3-0.3,0.6-0.6,0.6l-2.2,0c-0.3,0-0.6-0.3-0.6-0.6
									l0-2.2C100.9,88.8,101.2,88.6,101.5,88.6L101.5,88.6z"/>
							</g>
						</g>
					</g>
					<g>
						<g>
							<g>
								<path class="st9" d="M105.7,88.6l4,0c0.3,0,0.6,0.3,0.6,0.6l0,2.2c0,0.3-0.3,0.6-0.6,0.6l-4,0c-0.3,0-0.6-0.3-0.6-0.6l0-2.2
									C105.1,88.8,105.4,88.6,105.7,88.6L105.7,88.6z"/>
							</g>
						</g>
					</g>
					<g>
						<g>
							<g>
								<path class="st9" d="M111.9,88.5l2.1,0c0.3,0,0.6,0.3,0.6,0.6l0,2.3c0,0.3-0.3,0.6-0.6,0.6l-2.1,0c-0.3,0-0.6-0.3-0.6-0.6
									l0-2.3C111.3,88.8,111.6,88.5,111.9,88.5L111.9,88.5z"/>
							</g>
						</g>
					</g>
				</g>
			</g>
			<g>
				<g>
					<g>
						<g>
							<path class="st7" d="M79,95.8l22.1,0c0.4,0,0.5,0.2,0.5,0.4v12.2c0,0.2-0.1,0.5-0.3,0.5H78.7c-0.2,0-0.3-0.2-0.3-0.4l0-12.3
								C78.4,96,78.5,95.8,79,95.8L79,95.8z"/>
						</g>
					</g>
				</g>
				<g>
					<g>
						<g>
							<g>
								<path class="st9" d="M81.3,96.5l17.3,0c0.3,0,0.5,0.2,0.5,0.5l0,8.3c0,0.3-0.2,0.5-0.5,0.5l-17.3,0c-0.3,0-0.5-0.2-0.5-0.5
									l0-8.3C80.8,96.7,81.1,96.5,81.3,96.5L81.3,96.5z"/>
							</g>
						</g>
					</g>
					<g>
						<g>
							<g>
								<g>
									<rect x="80.9" y="106.6" class="st9" width="8.4" height="1.4"/>
								</g>
							</g>
						</g>
						<g>
							<g>
								<g>
									<rect x="90.7" y="106.6" class="st9" width="8.5" height="1.4"/>
								</g>
							</g>
						</g>
					</g>
				</g>
			</g>
		</g>
		<g>
			<g>
				<g>
					<rect x="57.6" y="114.8" class="st9" width="56.6" height="5.7"/>
				</g>
			</g>
			<g>
				<g>
					<rect x="58" y="114.8" class="st7" width="0.4" height="1.5"/>
				</g>
			</g>
			<g>
				<g>
					<rect x="59.2" y="114.8" class="st7" width="0.4" height="1.5"/>
				</g>
			</g>
			<g>
				<g>
					<rect x="60.5" y="114.8" class="st7" width="0.4" height="2.4"/>
				</g>
			</g>
			<g>
				<g>
					<rect x="61.7" y="114.8" class="st7" width="0.4" height="1.5"/>
				</g>
			</g>
			<g>
				<g>
					<rect x="63" y="114.8" class="st7" width="0.4" height="1.5"/>
				</g>
			</g>
			<g>
				<g>
					<rect x="64.2" y="114.8" class="st7" width="0.4" height="2.4"/>
				</g>
			</g>
			<g>
				<g>
					<rect x="65.5" y="114.8" class="st7" width="0.4" height="1.5"/>
				</g>
			</g>
			<g>
				<g>
					<rect x="66.7" y="114.8" class="st7" width="0.4" height="1.5"/>
				</g>
			</g>
			<g>
				<g>
					<rect x="68" y="114.8" class="st7" width="0.4" height="2.4"/>
				</g>
			</g>
			<g>
				<g>
					<rect x="69.3" y="114.8" class="st7" width="0.4" height="1.5"/>
				</g>
			</g>
			<g>
				<g>
					<rect x="70.5" y="114.8" class="st7" width="0.4" height="1.5"/>
				</g>
			</g>
			<g>
				<g>
					<rect x="71.8" y="114.8" class="st7" width="0.4" height="2.4"/>
				</g>
			</g>
			<g>
				<g>
					<rect x="73" y="114.8" class="st7" width="0.4" height="1.5"/>
				</g>
			</g>
			<g>
				<g>
					<rect x="74.3" y="114.8" class="st7" width="0.4" height="1.5"/>
				</g>
			</g>
			<g>
				<g>
					<rect x="75.5" y="114.8" class="st7" width="0.4" height="2.4"/>
				</g>
			</g>
			<g>
				<g>
					<rect x="75.5" y="114.8" class="st7" width="0.4" height="2.4"/>
				</g>
			</g>
			<g>
				<g>
					<rect x="76.8" y="114.8" class="st7" width="0.4" height="1.5"/>
				</g>
			</g>
			<g>
				<g>
					<rect x="78" y="114.8" class="st7" width="0.4" height="1.5"/>
				</g>
			</g>
			<g>
				<g>
					<rect x="79.3" y="114.8" class="st7" width="0.4" height="2.4"/>
				</g>
			</g>
			<g>
				<g>
					<rect x="79.3" y="114.8" class="st7" width="0.4" height="2.4"/>
				</g>
			</g>
			<g>
				<g>
					<rect x="80.6" y="114.8" class="st7" width="0.4" height="1.5"/>
				</g>
			</g>
			<g>
				<g>
					<rect x="81.8" y="114.8" class="st7" width="0.4" height="1.5"/>
				</g>
			</g>
			<g>
				<g>
					<rect x="83.1" y="114.8" class="st7" width="0.4" height="2.4"/>
				</g>
			</g>
			<g>
				<g>
					<rect x="83.1" y="114.8" class="st7" width="0.4" height="2.4"/>
				</g>
			</g>
			<g>
				<g>
					<rect x="84.3" y="114.8" class="st7" width="0.4" height="1.5"/>
				</g>
			</g>
			<g>
				<g>
					<rect x="85.6" y="114.8" class="st7" width="0.4" height="1.5"/>
				</g>
			</g>
			<g>
				<g>
					<rect x="86.8" y="114.8" class="st7" width="0.4" height="2.4"/>
				</g>
			</g>
			<g>
				<g>
					<rect x="86.8" y="114.8" class="st7" width="0.4" height="2.4"/>
				</g>
			</g>
			<g>
				<g>
					<rect x="88.1" y="114.8" class="st7" width="0.4" height="1.5"/>
				</g>
			</g>
			<g>
				<g>
					<rect x="89.4" y="114.8" class="st7" width="0.4" height="1.5"/>
				</g>
			</g>
			<g>
				<g>
					<rect x="90.6" y="114.8" class="st7" width="0.4" height="2.4"/>
				</g>
			</g>
			<g>
				<g>
					<rect x="90.6" y="114.8" class="st7" width="0.4" height="2.4"/>
				</g>
			</g>
			<g>
				<g>
					<rect x="91.9" y="114.8" class="st7" width="0.4" height="1.5"/>
				</g>
			</g>
			<g>
				<g>
					<rect x="93.1" y="114.8" class="st7" width="0.4" height="1.5"/>
				</g>
			</g>
			<g>
				<g>
					<rect x="94.4" y="114.8" class="st7" width="0.4" height="2.4"/>
				</g>
			</g>
			<g>
				<g>
					<rect x="94.4" y="114.8" class="st7" width="0.4" height="2.4"/>
				</g>
			</g>
			<g>
				<g>
					<rect x="95.6" y="114.8" class="st7" width="0.4" height="1.5"/>
				</g>
			</g>
			<g>
				<g>
					<rect x="96.9" y="114.8" class="st7" width="0.4" height="1.5"/>
				</g>
			</g>
			<g>
				<g>
					<rect x="98.1" y="114.8" class="st7" width="0.4" height="2.4"/>
				</g>
			</g>
			<g>
				<g>
					<rect x="98.1" y="114.8" class="st7" width="0.4" height="2.4"/>
				</g>
			</g>
			<g>
				<g>
					<rect x="99.4" y="114.8" class="st7" width="0.4" height="1.5"/>
				</g>
			</g>
			<g>
				<g>
					<rect x="100.7" y="114.8" class="st7" width="0.4" height="1.5"/>
				</g>
			</g>
			<g>
				<g>
					<rect x="101.9" y="114.8" class="st7" width="0.4" height="2.4"/>
				</g>
			</g>
			<g>
				<g>
					<rect x="101.9" y="114.8" class="st7" width="0.4" height="2.4"/>
				</g>
			</g>
			<g>
				<g>
					<rect x="103.2" y="114.8" class="st7" width="0.4" height="1.5"/>
				</g>
			</g>
			<g>
				<g>
					<rect x="104.4" y="114.8" class="st7" width="0.4" height="1.5"/>
				</g>
			</g>
			<g>
				<g>
					<rect x="105.7" y="114.8" class="st7" width="0.4" height="2.4"/>
				</g>
			</g>
			<g>
				<g>
					<rect x="105.7" y="114.8" class="st7" width="0.4" height="2.4"/>
				</g>
			</g>
			<g>
				<g>
					<rect x="106.9" y="114.8" class="st7" width="0.4" height="1.5"/>
				</g>
			</g>
			<g>
				<g>
					<rect x="108.2" y="114.8" class="st7" width="0.4" height="1.5"/>
				</g>
			</g>
			<g>
				<g>
					<rect x="109.4" y="114.8" class="st7" width="0.4" height="2.4"/>
				</g>
			</g>
			<g>
				<g>
					<rect x="109.4" y="114.8" class="st7" width="0.4" height="2.4"/>
				</g>
			</g>
			<g>
				<g>
					<rect x="110.7" y="114.8" class="st7" width="0.4" height="1.5"/>
				</g>
			</g>
			<g>
				<g>
					<rect x="112" y="114.8" class="st7" width="0.4" height="1.5"/>
				</g>
			</g>
			<g>
				<g>
					<rect x="113.2" y="114.8" class="st7" width="0.4" height="2.4"/>
				</g>
			</g>
		</g>
		<g>
			<g>
				<g>
					<rect x="57.6" y="123.5" class="st8" width="43" height="4.4"/>
				</g>
			</g>
			<g class="st10">
				<g>
					<rect x="57.6" y="124.9" class="st8" width="43" height="1.6"/>
				</g>
			</g>
			<g>
				<g>
					<g>
						<path class="st6" d="M107.7,125.7c0,0-6.9-2.2-7.1-2.2l0,0l0,0l0,0c-0.4,0-0.7,0.3-0.7,0.7c0,0.4,0.3,0.7,0.7,0.7
							c-0.4,0-0.7,0.3-0.7,0.7c0,0.4,0.3,0.7,0.7,0.7c-0.4,0-0.7,0.4-0.7,0.7c0,0.4,0.3,0.7,0.7,0.7
							C100.8,127.9,107.7,125.7,107.7,125.7z"/>
					</g>
				</g>
				<g>
					<g>
						<polygon class="st9" points="104.4,124.7 104.4,126.8 107.7,125.7 						"/>
					</g>
				</g>
			</g>
		</g>
		<g>
			<g>
				<g>
					<g>
						<rect x="57.6" y="132.1" class="st3" width="1.8" height="5.9"/>
					</g>
				</g>
			</g>
			<g>
				<g>
					<g>
						<polygon class="st4" points="85.4,136 85.4,134.1 87.1,134.1 87.8,136 						"/>
					</g>
				</g>
			</g>
			<g>
				<g>
					<g>
						<polygon class="st3" points="79.9,132.1 79.9,138.1 85.7,137 85.7,133.2 						"/>
					</g>
				</g>
			</g>
			<g>
				<g>
					<g>
						<rect x="58.9" y="131.5" class="st1" width="22.2" height="7.1"/>
					</g>
				</g>
			</g>
			<g>
				<g>
					<g>
						<rect x="88.9" y="131.1" class="st1" width="7.3" height="7.9"/>
					</g>
				</g>
			</g>
		</g>
		<g>
			<g>
				<g>
					<path class="st9" d="M148.1,98.6c0,5-2.9,9-6.5,9c-3.6,0-6.5-4-6.5-9c0-5,2.9-9,6.5-9C145.2,89.6,148.1,93.6,148.1,98.6z"/>
				</g>
			</g>
			<g>
				<g>
					<path class="st5" d="M141.8,96h-0.2c-0.2,0-0.4-0.2-0.4-0.4v-3.1c0-0.2,0.2-0.4,0.4-0.4h0.2c0.2,0,0.4,0.2,0.4,0.4v3.1
						C142.2,95.8,142,96,141.8,96z"/>
				</g>
			</g>
		</g>
		<g>
			<g>
				<g>
					<g>
						<path class="st8" d="M137.7,138.3c-0.4,0.5-1.1,0.6-1.6,0.2l-2.8-2.1l-0.8-0.6c-0.5-0.4-0.6-1.1-0.2-1.6
							c0.2-0.3,0.6-0.5,0.9-0.5c0.2,0,0.5,0.1,0.7,0.2l0.8,0.6l2.8,2.1C138,137,138.1,137.8,137.7,138.3z"/>
					</g>
				</g>
				<g class="st10">
					<g>
						<path class="st8" d="M134.7,134.6c-0.4,0.7-0.9,1.3-1.4,1.9l-0.8-0.6c-0.5-0.4-0.6-1.1-0.2-1.6c0.2-0.3,0.6-0.5,0.9-0.5
							c0.2,0,0.5,0.1,0.7,0.2L134.7,134.6z"/>
					</g>
				</g>
			</g>
			<g>
				<g>
					<path class="st8" d="M135.3,129.1c0,5.5-4.5,10-10,10c-5.5,0-10-4.5-10-10c0-5.5,4.5-10,10-10
						C130.8,119,135.3,123.5,135.3,129.1z"/>
				</g>
			</g>
			<g>
				<g>
					<path class="st5" d="M133.7,129.1c0,4.6-3.8,8.4-8.4,8.4c-4.6,0-8.4-3.8-8.4-8.4c0-4.6,3.8-8.4,8.4-8.4
						C129.9,120.7,133.7,124.4,133.7,129.1z"/>
				</g>
			</g>
			<g class="st11">
				<g>
					<path class="st5" d="M130.6,122.6c1.2,1.4,1.9,3.3,1.9,5.3c0,4.6-3.8,8.4-8.4,8.4c-2,0-3.9-0.7-5.3-1.9
						c1.5,1.9,3.9,3.1,6.5,3.1c4.6,0,8.4-3.8,8.4-8.4C133.7,126.4,132.5,124.1,130.6,122.6z"/>
				</g>
			</g>
		</g>
		<g>
			<g>
				<g>
					<g>
						<path class="st12" d="M148.7,74.4c0,4.9-4,8.9-8.9,8.9c-4.9,0-8.9-4-8.9-8.9c0-4.9,4-8.9,8.9-8.9
							C144.7,65.6,148.7,69.5,148.7,74.4z"/>
					</g>
				</g>
			</g>
			<g>
				<g>
					<g>
						<path class="st4" d="M139.8,82.3c-4.3,0-7.8-3.5-7.8-7.8c0-4.3,3.5-7.8,7.8-7.8c4.3,0,7.8,3.5,7.8,7.8
							C147.7,78.8,144.2,82.3,139.8,82.3z"/>
					</g>
				</g>
			</g>
			<g>
				<g>
					<g>
						<g>
							<g>
								<path class="st3" d="M139.9,64.5c-0.4,0-1.9,3.8-2,5.3c-0.2,2.1,0.9,1,2,1c1.1,0,2.2,1.1,2-1
									C141.7,68,140.3,64.5,139.9,64.5z"/>
							</g>
						</g>
					</g>
				</g>
				<g>
					<g>
						<g>
							<g>
								<path class="st3" d="M132.7,67.6c-0.2,0.2,1.4,4.1,2.4,5.2c1.4,1.6,1.4,0.1,2.1-0.7c0.8-0.8,2.3-0.7,0.7-2.1
									C136.5,68.7,133,67.3,132.7,67.6z"/>
							</g>
						</g>
					</g>
				</g>
				<g>
					<g>
						<g>
							<g>
								<path class="st3" d="M129.9,74.9c0,0.3,3.8,1.9,5.3,2c2.1,0.2,1-0.9,1-2c0-1.1,1.1-2.2-1-2C133.3,73,129.9,74.5,129.9,74.9z
									"/>
							</g>
						</g>
					</g>
				</g>
				<g>
					<g>
						<g>
							<g>
								<path class="st3" d="M133,82c0.2,0.2,4.1-1.4,5.2-2.4c1.6-1.4,0.1-1.3-0.7-2.1c-0.8-0.8-0.7-2.3-2.1-0.7
									C134.1,78.3,132.7,81.8,133,82z"/>
							</g>
						</g>
					</g>
				</g>
				<g>
					<g>
						<g>
							<g>
								<path class="st3" d="M140.2,84.9c0.3,0,1.9-3.8,2-5.3c0.2-2.1-0.9-1-2-1c-1.1,0-2.2-1.1-2,1
									C138.4,81.4,139.9,84.9,140.2,84.9z"/>
							</g>
						</g>
					</g>
				</g>
				<g>
					<g>
						<g>
							<g>
								<path class="st3" d="M147.4,81.8c0.2-0.2-1.4-4.1-2.4-5.2c-1.4-1.6-1.3-0.1-2.1,0.7c-0.8,0.8-2.3,0.7-0.7,2.1
									C143.6,80.6,147.1,82,147.4,81.8z"/>
							</g>
						</g>
					</g>
				</g>
				<g>
					<g>
						<g>
							<g>
								<path class="st3" d="M150.3,74.5c0-0.3-3.8-1.9-5.3-2c-2.1-0.2-1,0.9-1,2c0,1.1-1.1,2.2,1,2
									C146.8,76.4,150.3,74.9,150.3,74.5z"/>
							</g>
						</g>
					</g>
				</g>
				<g>
					<g>
						<g>
							<g>
								<path class="st3" d="M147.1,67.4c-0.2-0.2-4.1,1.4-5.2,2.4c-1.6,1.4-0.1,1.3,0.7,2.1c0.8,0.8,0.7,2.3,2.1,0.7
									C146,71.1,147.4,67.6,147.1,67.4z"/>
							</g>
						</g>
					</g>
				</g>
			</g>
			<g>
				<g>
					<g>
						<g>
							<path class="st13" d="M136.7,67.4c-0.3,0.1-0.1,3.4,0.3,4.5c0.6,1.6,1,0.4,1.8,0.1c0.8-0.4,1.9,0.1,1.1-1.4
								C139.1,69.3,137,67.3,136.7,67.4z"/>
						</g>
					</g>
				</g>
				<g>
					<g>
						<g>
							<path class="st13" d="M132.5,71.9c-0.1,0.3,2.3,2.5,3.3,3c1.5,0.7,1-0.4,1.3-1.2c0.3-0.8,1.4-1.3-0.2-1.8
								C135.6,71.6,132.6,71.7,132.5,71.9z"/>
						</g>
					</g>
				</g>
				<g>
					<g>
						<g>
							<path class="st13" d="M132.8,78.1c0.1,0.3,3.4,0.1,4.5-0.3c1.6-0.6,0.4-1,0.1-1.8c-0.4-0.8,0.1-1.9-1.4-1.1
								C134.7,75.6,132.7,77.8,132.8,78.1z"/>
						</g>
					</g>
				</g>
				<g>
					<g>
						<g>
							<path class="st13" d="M137.3,82.2c0.3,0.1,2.5-2.3,3-3.3c0.7-1.5-0.4-1-1.2-1.3c-0.8-0.3-1.3-1.4-1.8,0.2
								C136.9,79.1,137,82.1,137.3,82.2z"/>
						</g>
					</g>
				</g>
				<g>
					<g>
						<g>
							<path class="st13" d="M143.4,82c0.3-0.1,0.1-3.4-0.3-4.5c-0.6-1.6-1-0.4-1.8-0.1c-0.8,0.4-1.9-0.1-1.1,1.4
								C141,80.1,143.2,82.1,143.4,82z"/>
						</g>
					</g>
				</g>
				<g>
					<g>
						<g>
							<path class="st13" d="M147.6,77.4c0.1-0.3-2.3-2.5-3.3-3c-1.5-0.7-1,0.4-1.3,1.2c-0.3,0.8-1.4,1.3,0.2,1.8
								C144.5,77.8,147.5,77.7,147.6,77.4z"/>
						</g>
					</g>
				</g>
				<g>
					<g>
						<g>
							<path class="st13" d="M147.3,71.3c-0.1-0.3-3.4-0.1-4.5,0.3c-1.6,0.6-0.4,1-0.1,1.8c0.4,0.8-0.1,1.9,1.4,1.1
								C145.4,73.8,147.4,71.6,147.3,71.3z"/>
						</g>
					</g>
				</g>
				<g>
					<g>
						<g>
							<path class="st13" d="M142.8,67.2c-0.3-0.1-2.5,2.3-3,3.3c-0.7,1.5,0.4,1,1.2,1.3c0.8,0.3,1.3,1.4,1.8-0.2
								C143.2,70.2,143.1,67.3,142.8,67.2z"/>
						</g>
					</g>
				</g>
			</g>
			<g>
				<g>
					<g>
						<g>
							<g>
								<path class="st2" d="M143.4,71c-0.1-0.1-2,0.7-2.5,1.2c-0.8,0.7,0,0.7,0.4,1c0.4,0.4,0.4,1.1,1,0.3
									C142.9,72.9,143.6,71.2,143.4,71z"/>
							</g>
						</g>
					</g>
				</g>
				<g>
					<g>
						<g>
							<g>
								<path class="st2" d="M139.9,69.7c-0.2,0-0.9,1.9-0.9,2.6c-0.1,1.1,0.4,0.5,1,0.5c0.5,0,1.1,0.5,1-0.5
									C140.8,71.4,140,69.7,139.9,69.7z"/>
							</g>
						</g>
					</g>
				</g>
				<g>
					<g>
						<g>
							<g>
								<path class="st2" d="M136.4,71.3c-0.1,0.1,0.7,2,1.2,2.5c0.7,0.8,0.7,0,1-0.4c0.4-0.4,1.1-0.4,0.3-1.1
									C138.3,71.8,136.5,71.2,136.4,71.3z"/>
							</g>
						</g>
					</g>
				</g>
				<g>
					<g>
						<g>
							<g>
								<path class="st2" d="M135.1,74.9c0,0.2,1.9,0.9,2.6,0.9c1.1,0.1,0.5-0.4,0.5-1c0-0.5,0.5-1.1-0.5-1
									C136.8,73.9,135.1,74.7,135.1,74.9z"/>
							</g>
						</g>
					</g>
				</g>
				<g>
					<g>
						<g>
							<g>
								<path class="st2" d="M136.7,78.4c0.1,0.1,2-0.7,2.5-1.2c0.8-0.7,0-0.7-0.4-1c-0.4-0.4-0.4-1.1-1.1-0.3
									C137.2,76.5,136.6,78.2,136.7,78.4z"/>
							</g>
						</g>
					</g>
				</g>
				<g>
					<g>
						<g>
							<g>
								<path class="st2" d="M140.3,79.7c0.2,0,0.9-1.9,0.9-2.6c0.1-1.1-0.5-0.5-1-0.5c-0.5,0-1.1-0.5-1,0.5
									C139.3,78,140.1,79.7,140.3,79.7z"/>
							</g>
						</g>
					</g>
				</g>
				<g>
					<g>
						<g>
							<g>
								<path class="st2" d="M143.7,78.1c0.1-0.1-0.7-2-1.2-2.5c-0.7-0.8-0.7,0-1,0.4c-0.4,0.4-1.1,0.4-0.3,1.1
									C141.9,77.6,143.6,78.2,143.7,78.1z"/>
							</g>
						</g>
					</g>
				</g>
				<g>
					<g>
						<g>
							<g>
								<path class="st2" d="M145,74.5c0-0.2-1.9-0.9-2.6-0.9c-1.1-0.1-0.5,0.4-0.5,1c0,0.5-0.5,1.1,0.5,1
									C143.4,75.4,145.1,74.7,145,74.5z"/>
							</g>
						</g>
					</g>
				</g>
			</g>
			<g>
				<g>
					<g>
						<g>
							<g>
								<path class="st3" d="M143.2,73.2c-0.1-0.1-1.5,0-1.9,0.1c-0.7,0.3-0.2,0.4,0,0.8c0.2,0.3,0,0.8,0.6,0.5
									C142.4,74.2,143.2,73.3,143.2,73.2z"/>
							</g>
						</g>
					</g>
				</g>
				<g>
					<g>
						<g>
							<g>
								<path class="st3" d="M141.2,71.4c-0.1,0-1.1,1-1.3,1.5c-0.3,0.7,0.2,0.4,0.5,0.6c0.4,0.1,0.6,0.6,0.8-0.1
									C141.4,72.7,141.3,71.5,141.2,71.4z"/>
							</g>
						</g>
					</g>
				</g>
				<g>
					<g>
						<g>
							<g>
								<path class="st3" d="M138.6,71.6c-0.1,0,0,1.5,0.1,1.9c0.3,0.7,0.4,0.2,0.8,0c0.3-0.2,0.8,0,0.5-0.6
									C139.6,72.4,138.7,71.5,138.6,71.6z"/>
							</g>
						</g>
					</g>
				</g>
				<g>
					<g>
						<g>
							<g>
								<path class="st3" d="M136.8,73.6c0,0.1,1,1.1,1.5,1.3c0.7,0.3,0.4-0.2,0.6-0.5c0.1-0.4,0.6-0.6-0.1-0.8
									C138.1,73.4,136.8,73.4,136.8,73.6z"/>
							</g>
						</g>
					</g>
				</g>
				<g>
					<g>
						<g>
							<g>
								<path class="st3" d="M136.9,76.2c0.1,0.1,1.5,0,1.9-0.1c0.7-0.3,0.2-0.4,0-0.8c-0.2-0.3,0-0.8-0.6-0.5
									C137.7,75.1,136.9,76.1,136.9,76.2z"/>
							</g>
						</g>
					</g>
				</g>
				<g>
					<g>
						<g>
							<g>
								<path class="st3" d="M138.9,78c0.1,0,1.1-1,1.3-1.5c0.3-0.7-0.2-0.4-0.5-0.6c-0.4-0.1-0.6-0.6-0.8,0.1
									C138.7,76.6,138.8,77.9,138.9,78z"/>
							</g>
						</g>
					</g>
				</g>
				<g>
					<g>
						<g>
							<g>
								<path class="st3" d="M141.6,77.8c0.1,0,0-1.5-0.1-1.9c-0.3-0.7-0.4-0.2-0.8,0c-0.3,0.2-0.8,0-0.5,0.6
									C140.5,77,141.5,77.9,141.6,77.8z"/>
							</g>
						</g>
					</g>
				</g>
				<g>
					<g>
						<g>
							<g>
								<path class="st3" d="M143.3,75.8c0-0.1-1-1.1-1.5-1.3c-0.7-0.3-0.4,0.2-0.6,0.5c-0.1,0.4-0.6,0.6,0.1,0.8
									C142,76,143.3,76,143.3,75.8z"/>
							</g>
						</g>
					</g>
				</g>
			</g>
		</g>
	</g>
</g>
</svg>
